<?xml version="1.0" encoding="UTF-8" standalone="no"?>
<!DOCTYPE svg PUBLIC "-//W3C//DTD SVG 1.1//EN" "http://www.w3.org/Graphics/SVG/1.1/DTD/svg11.dtd">
<!-- 由 Microsoft Visio, SVG Export 生成 ER_Diagram.svg Page-1 -->
<svg xmlns="http://www.w3.org/2000/svg" xmlns:xlink="http://www.w3.org/1999/xlink" xmlns:ev="http://www.w3.org/2001/xml-events"
		width="8.26772in" height="11.6929in" viewBox="0 0 595.276 841.89" xml:space="preserve" color-interpolation-filters="sRGB"
		class="st8">
	<style type="text/css">
	<![CDATA[
		.st1 {fill:#ffffff;stroke:#000000;stroke-linecap:round;stroke-linejoin:round;stroke-width:0.75}
		.st2 {fill:#000000;font-family:Arial Unicode MS;font-size:1.00001em}
		.st3 {fill:#000000;font-family:Arial Unicode MS;font-size:0.833336em}
		.st4 {stroke:#000000;stroke-linecap:round;stroke-linejoin:round;stroke-width:0.75}
		.st5 {fill:#ffffff;stroke:none;stroke-linecap:butt;stroke-width:7.2}
		.st6 {fill:#000000;font-family:Arial Unicode MS;font-size:0.666664em}
		.st7 {fill:#ffffff;stroke:none;stroke-linecap:butt}
		.st8 {fill:none;fill-rule:evenodd;font-size:12px;overflow:visible;stroke-linecap:square;stroke-miterlimit:3}
	]]>
	</style>

	<g>
		<title>页-1</title>
		<g id="shape1-1" transform="translate(247.769,-559.843)">
			<title>实体</title>
			<desc>Traveller</desc>
			<path d="M0 841.89 L113.39 841.89 L113.39 771.02 L0 771.02 L0 841.89 Z" class="st1"/>
			<text x="34.02" y="810.06" class="st2">Traveller</text>		</g>
		<g id="shape2-4" transform="translate(18,-392.598)">
			<title>实体.2</title>
			<desc>City</desc>
			<path d="M0 841.89 L113.39 841.89 L113.39 771.02 L0 771.02 L0 841.89 Z" class="st1"/>
			<text x="46.36" y="810.06" class="st2">City</text>		</g>
		<g id="shape3-7" transform="translate(255.118,-240.945)">
			<title>实体.3</title>
			<desc>Picture</desc>
			<path d="M0 841.89 L113.39 841.89 L113.39 771.02 L0 771.02 L0 841.89 Z" class="st1"/>
			<text x="38.02" y="810.06" class="st2">Picture</text>		</g>
		<g id="shape4-10" transform="translate(463.89,-392.598)">
			<title>实体.4</title>
			<desc>Message</desc>
			<path d="M0 841.89 L113.39 841.89 L113.39 771.02 L0 771.02 L0 841.89 Z" class="st1"/>
			<text x="32.35" y="810.06" class="st2">Message</text>		</g>
		<g id="shape65-13" transform="translate(188.079,-402.52)">
			<title>关系</title>
			<desc>Upload</desc>
			<path d="M35.43 841.89 L70.87 816.38 L35.43 790.87 L0 816.38 L35.43 841.89 Z" class="st1"/>
			<text x="19.59" y="819.38" class="st3">Upload</text>		</g>
		<g id="shape66-16" transform="translate(347.244,-402.52)">
			<title>关系.66</title>
			<desc>Comment</desc>
			<path d="M35.43 841.89 L70.87 816.38 L35.43 790.87 L0 816.38 L35.43 841.89 Z" class="st1"/>
			<text x="13.76" y="819.38" class="st3">Comment</text>		</g>
		<g id="group67-19" transform="translate(260.243,-559.843)">
			<title>关系连接线</title>
			<desc>1</desc>
			<g id="shape67-20">
				<path d="M0 841.89 L-36.73 948.19" class="st4"/>
				<rect x="-20.5905" y="890.24" width="4.44919" height="9.59985" class="st5"/>
				<text x="-20.59" y="897.44" class="st6">1</text>			</g>
		</g>
		<g id="group72-25" transform="translate(131.386,-420.945)">
			<title>关系连接线.72</title>
			<desc>1</desc>
			<g id="shape72-26">
				<path d="M0 834.8 L56.69 834.8" class="st4"/>
				<rect x="26.1218" y="830.003" width="4.44919" height="9.59985" class="st7"/>
				<text x="26.12" y="837.2" class="st6">1</text>			</g>
		</g>
		<g id="group77-31" transform="translate(223.512,-402.52)">
			<title>关系连接线.77</title>
			<desc>N</desc>
			<g id="shape77-32">
				<path d="M0 841.89 L39.23 932.6" class="st4"/>
				<rect x="16.7281" y="882.444" width="5.77744" height="9.59985" class="st7"/>
				<text x="16.73" y="889.64" class="st6">N</text>			</g>
		</g>
		<g id="group82-37" transform="translate(346.132,-559.843)">
			<title>关系连接线.82</title>
			<desc>1</desc>
			<g id="shape82-38">
				<path d="M0 841.89 L36.55 948.19" class="st4"/>
				<rect x="16.0482" y="890.24" width="4.44919" height="9.59985" class="st7"/>
				<text x="16.05" y="897.44" class="st6">1</text>			</g>
		</g>
		<g id="group87-43" transform="translate(418.11,-420.945)">
			<title>关系连接线.87</title>
			<desc>N</desc>
			<g id="shape87-44">
				<path d="M0 834.8 L45.78 834.8" class="st4"/>
				<rect x="20.001" y="830.003" width="5.77744" height="9.59985" class="st7"/>
				<text x="20" y="837.2" class="st6">N</text>			</g>
		</g>
		<g id="group92-49" transform="translate(382.677,-402.52)">
			<title>关系连接线.92</title>
			<desc>1</desc>
			<g id="shape92-50">
				<path d="M0 841.89 L-24.62 932.6" class="st4"/>
				<rect x="-14.5347" y="882.444" width="4.44919" height="9.59985" class="st7"/>
				<text x="-14.53" y="889.64" class="st6">1</text>			</g>
		</g>
		<g id="group97-55" transform="translate(177.538,-671.811)">
			<title>属性</title>
			<desc>Username</desc>
			<g id="shape98-56">
				<title>工作表.98</title>
				<path d="M42.52 816.38 L97.62 882.99" class="st4"/>
			</g>
			<g id="shape97-59">
				<path d="M85.04 816.38 A42.5197 25.5118 -180 1 0 0 816.38 A42.5197 25.5118 -180 1 0 85.04 816.38 Z" class="st1"/>
				<text x="19.46" y="819.38" class="st3">Username</text>			</g>
		</g>
		<g id="group99-62" transform="translate(297.638,-671.811)">
			<title>属性.99</title>
			<desc>Password</desc>
			<g id="shape100-63">
				<title>工作表.100</title>
				<path d="M42.52 816.38 L19.22 882.99" class="st4"/>
			</g>
			<g id="shape99-66">
				<path d="M85.04 816.38 A42.5197 25.5118 -180 1 0 0 816.38 A42.5197 25.5118 -180 1 0 85.04 816.38 Z" class="st1"/>
				<text x="20.57" y="819.38" class="st3">Password</text>			</g>
		</g>
		<g id="group101-69" transform="translate(434.894,-671.811)">
			<title>属性.101</title>
			<desc>Email</desc>
			<g id="shape102-70">
				<title>工作表.102</title>
				<path d="M42.52 816.38 L-73.74 884.97" class="st4"/>
			</g>
			<g id="shape101-73">
				<path d="M85.04 816.38 A42.5197 25.5118 -180 1 0 0 816.38 A42.5197 25.5118 -180 1 0 85.04 816.38 Z" class="st1"/>
				<text x="30.02" y="819.38" class="st3">Email</text>			</g>
		</g>
		<g id="group103-76" transform="translate(32.1732,-496.063)">
			<title>属性.103</title>
			<desc>Name</desc>
			<g id="shape104-77">
				<title>工作表.104</title>
				<path d="M42.52 816.38 L42.52 874.49" class="st4"/>
			</g>
			<g id="shape103-80">
				<path d="M85.04 816.38 A42.5197 25.5118 -180 1 0 0 816.38 A42.5197 25.5118 -180 1 0 85.04 816.38 Z" class="st1"/>
				<text x="29.18" y="819.38" class="st3">Name</text>			</g>
		</g>
		<g id="group105-83" transform="translate(212.598,-147.402)">
			<title>属性.105</title>
			<desc>Description</desc>
			<g id="shape106-84">
				<title>工作表.106</title>
				<path d="M42.52 816.38 L79.8 748.35" class="st4"/>
			</g>
			<g id="shape105-87">
				<path d="M85.04 816.38 A42.5197 25.5118 -180 1 0 0 816.38 A42.5197 25.5118 -180 1 0 85.04 816.38 Z" class="st1"/>
				<text x="17.51" y="819.38" class="st3">Description</text>			</g>
		</g>
		<g id="group107-90" transform="translate(382.677,-320.315)">
			<title>属性.107</title>
			<desc>Time</desc>
			<g id="shape108-91">
				<title>工作表.108</title>
				<path d="M42.52 816.38 L9.62 752.76" class="st4"/>
			</g>
			<g id="shape107-94">
				<path d="M85.04 816.38 A42.5197 25.5118 -180 1 0 0 816.38 A42.5197 25.5118 -180 1 0 85.04 816.38 Z" class="st1"/>
				<text x="31.41" y="819.38" class="st3">Time</text>			</g>
		</g>
		<g id="group109-97" transform="translate(138.472,-320.315)">
			<title>属性.109</title>
			<desc>Time</desc>
			<g id="shape110-98">
				<title>工作表.110</title>
				<path d="M42.52 816.38 L75.42 752.76" class="st4"/>
			</g>
			<g id="shape109-101">
				<path d="M85.04 816.38 A42.5197 25.5118 -180 1 0 0 816.38 A42.5197 25.5118 -180 1 0 85.04 816.38 Z" class="st1"/>
				<text x="31.41" y="819.38" class="st3">Time</text>			</g>
		</g>
		<g id="group111-104" transform="translate(463.89,-484.724)">
			<title>属性.111</title>
			<desc>Content</desc>
			<g id="shape112-105">
				<title>工作表.112</title>
				<path d="M42.52 816.38 L50.58 863.15" class="st4"/>
			</g>
			<g id="shape111-108">
				<path d="M85.04 816.38 A42.5197 25.5118 -180 1 0 0 816.38 A42.5197 25.5118 -180 1 0 85.04 816.38 Z" class="st1"/>
				<text x="25.01" y="819.38" class="st3">Content</text>			</g>
		</g>
		<g id="group113-111" transform="translate(340.157,-147.402)">
			<title>属性.113</title>
			<desc>Good</desc>
			<g id="shape114-112">
				<title>工作表.114</title>
				<path d="M42.52 816.38 L-4.08 748.35" class="st4"/>
			</g>
			<g id="shape113-115">
				<path d="M85.04 816.38 A42.5197 25.5118 -180 1 0 0 816.38 A42.5197 25.5118 -180 1 0 85.04 816.38 Z" class="st1"/>
				<text x="30.29" y="819.38" class="st3">Good</text>			</g>
		</g>
		<g id="shape115-118" transform="translate(138.472,-524.409)">
			<title>关系.115</title>
			<desc>Visit</desc>
			<path d="M35.43 841.89 L70.87 816.38 L35.43 790.87 L0 816.38 L35.43 841.89 Z" class="st1"/>
			<text x="25.99" y="819.38" class="st3">Visit</text>		</g>
		<g id="group116-121" transform="translate(173.906,-524.409)">
			<title>关系连接线.116</title>
			<g id="shape116-122">
				<path d="M0 841.89 L-54.38 902.83" class="st4"/>
			</g>
		</g>
		<g id="group121-125" transform="translate(247.769,-595.276)">
			<title>关系连接线.121</title>
			<g id="shape121-126">
				<path d="M0 841.89 L-73.86 861.73" class="st4"/>
			</g>
		</g>
		<g id="shape126-129" transform="translate(411.024,-579.685)">
			<title>关系.126</title>
			<desc>Follow</desc>
			<path d="M35.43 841.89 L70.87 816.38 L35.43 790.87 L0 816.38 L35.43 841.89 Z" class="st1"/>
			<text x="20.98" y="819.38" class="st3">Follow</text>		</g>
		<g id="group127-132" transform="translate(361.155,-598.11)">
			<title>关系连接线.127</title>
			<desc>N</desc>
			<g id="shape127-133">
				<path d="M0 834.8 L49.87 834.8" class="st4"/>
				<rect x="22.0456" y="830.003" width="5.77744" height="9.59985" class="st5"/>
				<text x="22.05" y="837.2" class="st6">N</text>			</g>
		</g>
		<g id="group132-138" transform="translate(433.845,-588.766)">
			<title>关系连接线.132</title>
			<desc>M</desc>
			<g id="shape132-139">
				<path d="M0 841.89 L-72.69 870.81" class="st4"/>
				<rect x="-39.6771" y="851.552" width="6.66403" height="9.59985" class="st5"/>
				<text x="-39.68" y="858.75" class="st6">M</text>			</g>
		</g>
		<g id="group137-144" transform="translate(57.4389,-671.811)">
			<title>属性.137</title>
			<desc>Tid</desc>
			<g id="shape138-145">
				<title>工作表.138</title>
				<path d="M42.52 816.38 L190.33 890.14" class="st4"/>
			</g>
			<g id="shape137-148">
				<path d="M85.04 816.38 A42.5197 25.5118 -180 1 0 0 816.38 A42.5197 25.5118 -180 1 0 85.04 816.38 Z" class="st1"/>
				<text x="35.02" y="819.38" class="st3">Tid</text>			</g>
		</g>
		<g id="group139-151" transform="translate(32.1732,-289.134)">
			<title>属性.139</title>
			<desc>Cid</desc>
			<g id="shape140-152">
				<title>工作表.140</title>
				<path d="M42.52 816.38 L42.52 738.43" class="st4"/>
			</g>
			<g id="shape139-155">
				<path d="M85.04 816.38 A42.5197 25.5118 -180 1 0 0 816.38 A42.5197 25.5118 -180 1 0 85.04 816.38 Z" class="st1"/>
				<text x="35.02" y="819.38" class="st3">Cid</text>			</g>
		</g>
		<g id="group141-158" transform="translate(481.89,-289.134)">
			<title>属性.141</title>
			<desc>Mid</desc>
			<g id="shape142-159">
				<title>工作表.142</title>
				<path d="M42.52 816.38 L39.89 738.43" class="st4"/>
			</g>
			<g id="shape141-162">
				<path d="M85.04 816.38 A42.5197 25.5118 -180 1 0 0 816.38 A42.5197 25.5118 -180 1 0 85.04 816.38 Z" class="st1"/>
				<text x="34.46" y="819.38" class="st3">Mid</text>			</g>
		</g>
		<g id="group143-165" transform="translate(85.0394,-147.402)">
			<title>属性.143</title>
			<desc>Pid</desc>
			<g id="shape144-166">
				<title>工作表.144</title>
				<path d="M42.52 816.38 L170.08 744.75" class="st4"/>
			</g>
			<g id="shape143-169">
				<path d="M85.04 816.38 A42.5197 25.5118 -180 1 0 0 816.38 A42.5197 25.5118 -180 1 0 85.04 816.38 Z" class="st1"/>
				<text x="35.29" y="819.38" class="st3">Pid</text>			</g>
		</g>
		<g id="group145-172" transform="translate(467.717,-147.402)">
			<title>属性.145</title>
			<desc>File</desc>
			<g id="shape146-173">
				<title>工作表.146</title>
				<path d="M42.52 816.38 L-99.21 742.47" class="st4"/>
			</g>
			<g id="shape145-176">
				<path d="M85.04 816.38 A42.5197 25.5118 -180 1 0 0 816.38 A42.5197 25.5118 -180 1 0 85.04 816.38 Z" class="st1"/>
				<text x="34.46" y="819.38" class="st3">File</text>			</g>
		</g>
	</g>
</svg>
